<svg xmlns="http://www.w3.org/2000/svg" width="192" height="192" fill="#717171" viewBox="0 0 256 256">
  <rect width="256" height="256" fill="none"></rect>
  <line x1="80" y1="136" x2="176" y2="136" fill="none" stroke="#717171" stroke-linecap="round" stroke-linejoin="round" stroke-width="16"></line>
  <path d="M48,96V72A32,32,0,0,1,80,40h96a32,32,0,0,1,32,32V96" fill="none" stroke="#717171" stroke-linecap="round" stroke-linejoin="round" stroke-width="16"></path>
  <path d="M80,168V128a32,32,717171,1,0-32,32h0v40a8,8,0,0,0,8,8H200a8,8,0,0,0,8-8V160h0a32,32,0,1,0-32-32v40" fill="none" stroke="#717171" stroke-linecap="round" stroke-linejoin="round" stroke-width="16"></path>
</svg>